<?xml version="1.0" standalone="no"?>
<!DOCTYPE svg PUBLIC "-//W3C//DTD SVG 20010904//EN"
 "http://www.w3.org/TR/2001/REC-SVG-20010904/DTD/svg10.dtd">
<svg version="1.0" xmlns="http://www.w3.org/2000/svg"
 width="1200.000000pt" height="1350.000000pt" viewBox="0 0 1200.000000 1350.000000"
 preserveAspectRatio="xMidYMid meet">


  <rect width="1200" height="1350" fill="white" />

  <g transform="translate(0.000000,1350.000000) scale(0.100000,-0.100000)"
  fill="#000000" stroke="none">
    <path d="M5680 13490 c-817 -53 -1549 -249 -2258 -604 -1333 -667 -2361 -1825
    -2867 -3226 -473 -1310 -451 -2780 60 -4075 631 -1599 1938 -2837 3570 -3384
    386 -129 793 -216 1255 -268 198 -22 882 -25 1090 -5 313 31 604 80 893 153
    1285 322 2433 1088 3233 2160 942 1259 1327 2839 1074 4399 -190 1167 -741
    2255 -1575 3109 -981 1005 -2260 1608 -3670 1731 -167 15 -643 20 -805 10z
    m610 -260 c649 -37 1211 -161 1807 -401 284 -113 719 -345 978 -519 1318 -886
    2192 -2270 2414 -3820 52 -358 69 -862 42 -1200 -46 -569 -173 -1119 -376
    -1630 -72 -184 -249 -546 -350 -721 -745 -1283 -1968 -2217 -3395 -2593 -431
    -113 -817 -165 -1295 -173 -653 -11 -1185 65 -1790 258 -976 312 -1819 873
    -2527 1684 -19 22 -77 94 -130 160 -689 873 -1093 1908 -1178 3017 -13 176
    -13 639 0 816 91 1188 544 2285 1319 3193 581 680 1343 1224 2177 1552 726
    286 1543 420 2304 377z"/>
    <path d="M5957 12863 c-15 -14 -6 -42 19 -60 l25 -19 -16 -294 -16 -295 -29
    -25 c-33 -27 -37 -42 -17 -58 19 -16 586 -45 603 -31 12 10 54 109 54 129 0
    11 -29 40 -40 40 -4 0 -30 -18 -56 -40 -27 -22 -66 -45 -87 -51 -50 -13 -193
    3 -215 25 -13 12 -15 39 -13 143 1 70 5 131 9 134 4 4 51 3 104 0 70 -5 102
    -12 116 -24 24 -22 59 -22 66 1 9 27 10 108 2 120 -10 16 -31 15 -68 -4 -25
    -13 -48 -15 -126 -9 l-94 7 7 102 c4 55 11 107 17 114 15 17 179 16 222 -2 18
    -7 43 -28 56 -45 17 -25 28 -31 49 -29 25 3 26 6 29 67 2 36 -2 69 -8 75 -17
    17 -578 45 -593 29z"/>
  </g>
</svg>
